<svg width="74" height="74" viewBox="0 0 74 74" fill="none" xmlns="http://www.w3.org/2000/svg">
<circle cx="37" cy="37" r="36.5" fill="#FC0A32" stroke="black"/>
<path d="M26.0033 11.6H47.9974C51.9513 11.6001 55.55 13.2125 58.1625 15.8051C60.7788 18.4015 62.3998 21.9816 62.3998 25.9135V48.0912C62.3997 52.0143 60.7788 55.5901 58.1703 58.1869L58.1625 58.1947C55.5457 60.7916 51.947 62.3998 48.0013 62.3998H26.0033C22.049 62.3998 18.449 60.7911 15.8373 58.2035L15.7474 58.1029L15.7396 58.0932L15.7308 58.0844L15.4945 57.8393C13.083 55.2788 11.6 51.8439 11.6 48.0863V25.9135C11.6 21.9771 13.2174 18.4014 15.8295 15.8051C18.4416 13.2087 22.0402 11.6 26.0033 11.6ZM14.2728 48.0912C14.2729 51.2515 15.5549 54.1283 17.6224 56.2318L17.6283 56.2377L17.6351 56.2436L17.7279 56.3324C19.852 58.4396 22.7857 59.7533 26.0033 59.7533H47.9974C51.2227 59.7532 54.155 58.4404 56.2758 56.3324L56.2845 56.3246C58.4054 54.2165 59.7269 51.3 59.7269 48.0912V27.3734H14.2728V48.0912ZM23.2611 14.5717C21.1296 15.0826 19.221 16.1793 17.7201 17.6752C15.9935 19.3914 14.7959 21.6422 14.4056 24.1459L14.3158 24.723H29.849L29.3861 23.9623L23.8051 14.7982L23.6156 14.4877L23.2611 14.5717ZM43.807 15.0082L49.4808 24.434L49.4886 24.4457L49.5179 24.4926L49.6654 24.723H59.683L59.5941 24.1469C59.2081 21.6417 58.0061 19.3957 56.2806 17.6762V17.6752L55.8724 17.2895C53.7876 15.4048 51.0214 14.2505 47.9974 14.2504H43.351L43.807 15.0082Z" fill="white" stroke="black"/>
<path d="M39.8382 41.2203L25.0933 49.9986L25.4304 33.7922L39.8382 41.2203Z" fill="white" stroke="black"/>
<path d="M52.401 41.2546L37.601 49.9397L38.0404 33.7358L52.401 41.2546Z" fill="white" stroke="black"/>
</svg>
