<svg width="25" height="19" viewBox="0 0 25 19" fill="none" xmlns="http://www.w3.org/2000/svg">
<path d="M22.6562 0H2.34375C1.0498 0 0 1.0498 0 2.34375V16.4062C0 17.7002 1.0498 18.75 2.34375 18.75H22.6562C23.9502 18.75 25 17.7002 25 16.4062V2.34375C25 1.0498 23.9502 0 22.6562 0ZM10.6494 10.9229C10.7861 10.8008 10.9961 10.8203 11.0986 10.9668L12.0508 12.3193C12.1338 12.4365 12.124 12.5928 12.0264 12.6953C9.40918 15.4688 3.58887 14.2627 3.58887 9.37988C3.58887 4.62891 9.53125 3.54492 12.0117 5.95703C12.1143 6.05469 12.1338 6.11328 12.0605 6.23535L11.2061 7.72461C11.1133 7.87598 10.9033 7.91992 10.7617 7.80762C8.76953 6.24512 6.14258 7.08008 6.14258 9.33105C6.14746 11.6748 8.6377 12.7734 10.6494 10.9229ZM19.9463 10.9229C20.083 10.8008 20.293 10.8203 20.3955 10.9668L21.3477 12.3193C21.4307 12.4365 21.4209 12.5928 21.3232 12.6953C18.7109 15.4736 12.8906 14.2627 12.8906 9.37988C12.8906 4.62891 18.833 3.54492 21.3135 5.95703C21.416 6.05469 21.4355 6.11328 21.3623 6.23535L20.5078 7.72461C20.415 7.87598 20.2051 7.91992 20.0635 7.80762C18.0713 6.24512 15.4443 7.08008 15.4443 9.33105C15.4443 11.6748 17.9346 12.7734 19.9463 10.9229Z" fill="black"/>
</svg>
