<svg width="159" height="130" viewBox="0 0 159 130" fill="none" xmlns="http://www.w3.org/2000/svg">
<path d="M107.037 92.9828L79.0373 64.9828M79.0373 64.9828L51.0373 92.9828M79.0373 64.9828V127.983M137.767 109.713C144.595 105.991 149.988 100.101 153.096 92.9732C156.205 85.8454 156.851 77.8854 154.933 70.3496C153.015 62.8138 148.642 56.1314 142.504 51.3569C136.366 46.5825 128.813 43.9879 121.037 43.9828H112.217C110.099 35.7875 106.149 28.1791 100.667 21.7297C95.1845 15.2804 88.3112 10.1577 80.564 6.74705C72.8168 3.33635 64.3972 1.72631 55.9381 2.03797C47.4791 2.34964 39.2008 4.5749 31.7256 8.54646C24.2503 12.518 17.7727 18.1325 12.7797 24.9679C7.78665 31.8032 4.40815 39.6816 2.89818 48.0106C1.38821 56.3396 1.78606 64.9025 4.06181 73.0556C6.33757 81.2087 10.432 88.7399 16.0373 95.0828" stroke="#1E1E1E" stroke-width="4" stroke-linecap="round" stroke-linejoin="round"/>
</svg>
